<svg width="186" height="222" viewBox="0 0 186 222" fill="none" xmlns="http://www.w3.org/2000/svg">
<path d="M163.041 85.6877C155.588 69.3219 148.198 53.0826 140.754 36.7349C133.427 42.9433 126.191 49.0703 118.828 55.3147C117.826 54.1309 116.861 52.9923 115.814 51.7633C118.296 49.6577 120.723 47.5972 123.24 45.4645C113.387 32.84 103.597 20.2878 93.6807 7.57291C83.7914 20.2426 73.9923 32.8129 64.1211 45.4645C66.6115 47.5792 69.0387 49.6396 71.5381 51.7633C70.5275 52.9652 69.5801 54.0857 68.5334 55.3238C61.2247 49.1335 53.9701 42.9884 46.5983 36.744C39.1543 53.0917 31.7734 69.3129 24.3203 85.6787C22.9037 85.037 21.5503 84.4225 20.0795 83.7538C28.3627 65.5626 36.6098 47.4436 44.911 29.2072C50.1624 33.6533 55.3146 38.0182 60.557 42.4553C71.6012 28.3035 82.6003 14.1969 93.6807 0C104.743 14.1789 115.751 28.2854 126.804 42.4553C132.029 38.0272 137.181 33.6624 142.45 29.2072C150.734 47.4075 158.972 65.4993 167.273 83.7357C165.892 84.3773 164.539 85.0099 163.05 85.6967L163.041 85.6877Z" fill="#262626"/>
<path d="M56.5959 109.319C53.3927 99.5864 50.2256 89.9441 47.0134 80.1662H117.745V84.6665H53.4017C55.9552 92.4473 58.4546 100.065 61.0081 107.837C59.5374 108.334 58.1298 108.804 56.6049 109.319H56.5959Z" fill="#262626"/>
<path d="M104.175 175.885C105.681 176.4 107.044 176.861 108.578 177.376C103.588 192.278 98.6253 207.125 93.6627 221.964L93.392 221.982C88.6368 207.17 83.8817 192.359 79.0994 177.43C80.5973 176.942 82.0229 176.49 83.5297 176.002C86.8773 186.431 90.1888 196.742 93.6175 207.414C97.1997 196.706 100.674 186.359 104.184 175.876L104.175 175.885Z" fill="#262626"/>
<path d="M97.344 125.839V127.004C97.344 133.131 97.344 139.258 97.344 145.394C97.344 147.916 98.0659 148.855 100.466 149.515C100.701 149.578 100.98 149.597 101.143 149.741C101.386 149.958 101.72 150.283 101.702 150.536C101.684 150.78 101.305 151.106 101.016 151.205C100.656 151.332 100.231 151.268 99.8344 151.277C97.1997 151.277 94.5559 151.304 91.9212 151.241C91.461 151.232 91.0008 150.853 90.5406 150.654C90.9196 150.329 91.2444 149.841 91.6866 149.705C94.1138 148.946 94.5559 148.422 94.5559 145.855C94.5559 139.041 94.5198 132.237 94.583 125.423C94.601 123.615 93.9423 122.432 92.3001 121.754C92.228 121.727 92.1377 121.7 92.0836 121.645C91.6685 121.221 91.2625 120.787 90.8474 120.353C91.4069 120.245 91.9663 120.046 92.5257 120.037C93.8431 120.037 95.1695 120.254 96.4688 120.136C97.8945 120.01 98.905 120.471 99.8525 121.501C106.105 128.26 112.395 134.975 118.657 141.725C118.954 142.042 119.144 142.457 119.378 142.828C119.514 142.738 119.649 142.656 119.784 142.566C119.811 142.141 119.857 141.725 119.857 141.301C119.857 136.05 119.857 130.809 119.857 125.558C119.857 122.847 119.225 122.061 116.608 121.293C116.22 121.176 115.95 120.688 115.625 120.371C116.04 120.163 116.446 119.793 116.861 119.775C119.694 119.675 122.527 119.621 125.361 119.63C125.812 119.63 126.263 119.983 126.723 120.163C126.389 120.543 126.137 121.103 125.722 121.284C122.997 122.423 122.609 122.929 122.627 125.839C122.672 133.89 122.744 141.942 122.78 149.985C122.78 150.69 123.105 151.648 122.067 151.901C121.165 152.127 120.804 151.332 120.317 150.726C117.835 147.645 115.417 144.5 112.755 141.572C108.072 136.421 103.236 131.405 98.4629 126.336C98.2373 126.092 97.9576 125.893 97.705 125.667C97.5877 125.721 97.4704 125.775 97.344 125.83V125.839Z" fill="#262626"/>
<path d="M148.333 140.153C146.655 140.153 144.977 140.108 143.299 140.189C142.902 140.207 142.342 140.551 142.18 140.894C141.422 142.521 140.745 144.192 140.095 145.873C139.455 147.527 139.843 148.395 141.44 149.163C141.981 149.425 142.523 149.687 143.019 150.021C143.208 150.148 143.407 150.5 143.362 150.699C143.317 150.898 142.992 151.079 142.757 151.169C142.55 151.25 142.288 151.196 142.044 151.205C139.292 151.295 136.549 151.404 133.797 151.458C133.427 151.458 133.048 151.196 132.678 151.051C132.85 150.654 132.931 150.012 133.22 149.895C135.972 148.801 137.009 146.37 138.047 143.921C141.007 136.927 143.966 129.932 146.908 122.929C147.151 122.341 147.206 121.654 147.53 121.121C147.918 120.48 148.451 119.892 149.037 119.422C149.227 119.278 149.867 119.513 150.156 119.748C150.436 119.983 150.526 120.444 150.679 120.805C154.352 129.236 158.033 137.668 161.679 146.117C162.455 147.916 163.6 149.226 165.504 149.795C166.055 149.958 166.578 150.175 166.371 150.961C166.154 151.774 165.595 151.395 165.116 151.386C162.797 151.314 160.487 151.25 158.169 151.214C157.411 151.205 156.644 151.368 155.895 151.304C155.335 151.259 154.794 150.97 154.244 150.78C154.668 150.374 155.056 149.922 155.525 149.569C155.931 149.262 156.436 149.072 156.869 148.801C157.51 148.404 157.663 147.816 157.375 147.138C156.463 145.006 155.57 142.864 154.604 140.758C154.469 140.469 153.964 140.207 153.621 140.198C151.861 140.144 150.102 140.171 148.342 140.171L148.333 140.153ZM153.54 138.282C151.807 134.369 150.138 130.592 148.469 126.815C148.324 126.842 148.18 126.869 148.027 126.896C146.484 130.637 144.95 134.387 143.344 138.282H153.54Z" fill="#262626"/>
<path d="M52.2919 140.153C50.5685 140.153 48.8541 140.117 47.1397 140.18C46.7697 140.198 46.2103 140.469 46.075 140.777C45.308 142.448 44.6042 144.147 43.9455 145.864C43.3049 147.536 43.6838 148.377 45.299 149.154C45.8404 149.416 46.3817 149.678 46.869 150.012C47.0585 150.139 47.2389 150.5 47.1938 150.69C47.1487 150.889 46.8239 151.088 46.5893 151.151C46.2915 151.232 45.9577 151.151 45.6419 151.169C43.0071 151.259 40.3814 151.368 37.7467 151.422C37.3406 151.422 36.9256 151.16 36.5195 151.015C36.7361 150.6 36.8534 149.94 37.1782 149.804C39.6054 148.828 40.6431 146.75 41.6176 144.554C45.1366 136.71 48.9533 128.992 51.4888 120.733C51.6242 120.29 52.0753 119.901 52.4543 119.594C53.2663 118.943 53.8438 119.133 54.2589 120.136C55.4048 122.947 56.5868 125.757 57.805 128.541C60.4036 134.478 63.0474 140.397 65.637 146.334C66.3678 148.015 67.5048 149.19 69.2643 149.741C69.8508 149.922 70.5455 150.175 70.1666 150.952C70.0312 151.223 69.3545 151.35 68.9304 151.341C66.5754 151.323 64.2204 151.232 61.8653 151.205C61.0713 151.196 60.2592 151.35 59.4742 151.286C58.996 151.25 58.5358 150.934 58.0666 150.744C58.4275 150.374 58.7794 149.985 59.1584 149.633C59.2938 149.506 59.5193 149.47 59.6998 149.38C61.4864 148.512 61.6488 148.124 60.8908 146.334C60.1419 144.563 59.3569 142.819 58.6351 141.03C58.3554 140.334 58.0125 140.072 57.2185 140.117C55.5853 140.207 53.9431 140.144 52.3009 140.144C52.3009 140.144 52.3009 140.135 52.3009 140.126L52.2919 140.153ZM57.3899 138.291C55.6575 134.369 53.9882 130.601 52.3189 126.824C52.1746 126.842 52.0302 126.86 51.8768 126.878C50.3339 130.637 48.7909 134.387 47.1938 138.282H57.3899V138.291Z" fill="#262626"/>
<path d="M14.5393 120.435C19.2855 120.245 24.0406 120.073 28.7868 119.838C29.7793 119.793 30.3117 120.046 30.3748 121.085C30.5102 123.164 30.7177 125.233 30.7989 127.312C30.817 127.682 30.3478 128.08 30.1041 128.468C29.7252 128.188 29.1026 127.971 29.0123 127.619C27.9747 123.498 25.0512 122.242 21.1893 122.179C17.6343 122.124 17.6343 122.07 17.6343 125.622C17.6343 132.345 17.6343 139.078 17.6343 145.801C17.6343 148.331 17.9862 148.792 20.4585 149.479C20.7653 149.569 21.0811 149.633 21.3879 149.705C21.9563 149.831 22.5067 149.976 22.4075 150.762C22.2992 151.585 21.7307 151.467 21.1442 151.431C18.7892 151.305 16.4342 151.16 14.0792 151.133C12.7618 151.115 11.4444 151.341 10.1361 151.35C9.76614 151.35 9.38717 150.988 9.01722 150.798C9.28792 150.473 9.51349 150.075 9.84735 149.831C10.118 149.624 10.5241 149.606 10.8579 149.479C12.7618 148.81 13.3573 148.033 13.3663 146.018C13.3844 138.49 13.3663 130.962 13.3844 123.435C13.3844 122.667 13.1769 122.142 12.3287 122.188C10.6143 122.278 8.8909 122.296 7.20359 122.558C5.16437 122.884 3.62143 124.067 2.63791 125.92C2.26797 126.625 2.0063 127.402 1.55515 128.053C1.35664 128.342 0.797208 128.523 0.418239 128.495C0.246801 128.477 -0.0329146 127.827 0.00317769 127.492C0.210708 125.432 0.571631 123.381 0.716 121.311C0.788185 120.245 1.17618 119.992 2.17774 120.001C6.29226 120.055 10.4068 120.019 14.5213 120.019C14.5213 120.154 14.5213 120.29 14.5213 120.435H14.5393Z" fill="#262626"/>
<path d="M177.108 137.993C177.108 133.384 177.108 128.785 177.108 124.176C177.108 122.459 176.946 122.242 175.267 121.727C174.924 121.618 174.527 121.6 174.248 121.41C173.896 121.166 173.634 120.778 173.336 120.453C173.724 120.254 174.112 119.892 174.5 119.883C176.26 119.883 178.01 120.037 179.77 120.019C181.168 120.01 182.558 119.802 183.957 119.757C184.308 119.748 184.66 120.046 185.012 120.209C184.796 120.615 184.579 121.031 184.354 121.429C184.335 121.456 184.281 121.456 184.245 121.465C180.744 122.305 181.331 123.137 181.322 125.947C181.295 133.475 181.349 141.002 181.286 148.53C181.277 150.112 181.105 151.756 180.654 153.265C179.039 158.742 172.362 161.607 167.192 159.167C165.946 158.579 165.811 157.947 166.578 156.401C167.255 155.037 167.832 154.811 169.014 155.434C169.899 155.904 170.729 156.483 171.649 156.844C174.428 157.91 176.494 156.754 176.819 153.808C177.072 151.512 177.063 149.172 177.09 146.858C177.135 143.894 177.099 140.93 177.099 137.966L177.108 137.993Z" fill="#262626"/>
<path d="M134.393 80.9976C135.918 81.4946 137.307 81.9374 138.823 82.4254C135.954 91.4261 133.111 100.318 130.215 109.391C128.726 108.912 127.31 108.461 125.785 107.964C128.663 98.9629 131.496 90.0615 134.393 80.9885V80.9976Z" fill="#262626"/>
<path d="M110.897 166.044C108.957 166.035 107.657 164.724 107.675 162.808C107.694 160.793 109.074 159.456 111.113 159.483C113.026 159.51 114.244 160.748 114.253 162.664C114.253 164.742 112.954 166.062 110.906 166.044H110.897ZM112.864 162.935C112.746 162.348 112.71 161.823 112.53 161.353C112.142 160.341 111.222 159.926 110.31 160.323C109.327 160.757 109.119 161.643 109.11 162.61C109.101 163.64 109.191 164.688 110.265 165.167C111.113 165.556 111.961 165.357 112.422 164.471C112.674 163.992 112.728 163.414 112.855 162.926L112.864 162.935Z" fill="#262626"/>
<path d="M58.3464 161.986C56.8395 162.429 55.3868 162.863 53.9431 163.287C54.1958 165.33 54.683 165.492 58.1208 164.815C57.6335 165.773 55.856 166.333 54.4123 165.98C53.1671 165.682 52.328 164.553 52.2919 163.134C52.2468 161.489 53.1581 160.143 54.5837 159.736C56.1628 159.293 57.1012 159.817 58.3464 161.986ZM53.8168 162.564C54.4484 162.402 55.0169 162.339 55.5131 162.104C55.847 161.95 56.0816 161.57 56.3523 161.299C55.9913 160.983 55.6665 160.477 55.2605 160.387C54.304 160.179 53.7717 160.992 53.8168 162.564Z" fill="#262626"/>
<path d="M131.541 165.104C132.895 165.032 133.996 164.968 135.205 164.905C134.943 165.592 134.691 166.242 134.429 166.929C133.003 165.438 131.163 166.459 129.439 165.899C130.188 165.194 130.847 164.58 131.496 163.965C131.614 163.857 131.731 163.748 131.83 163.622C132.48 162.817 133.427 161.932 132.642 160.902C131.893 159.917 130.91 160.703 130.062 161.109C129.962 161.155 129.836 161.137 129.538 161.164C129.656 160.856 129.674 160.585 129.818 160.432C130.612 159.564 132.272 159.212 133.382 159.655C134.447 160.07 134.799 161.281 134.023 162.357C133.355 163.278 132.498 164.065 131.532 165.113L131.541 165.104Z" fill="#262626"/>
<path d="M119.487 161.191C120.118 159.537 122.347 158.959 123.574 159.862C124.323 160.414 124.458 161.498 123.746 162.447C123.078 163.324 122.257 164.083 121.327 165.095C122.636 165.041 123.755 164.986 124.982 164.932C124.729 165.592 124.476 166.233 124.206 166.929C122.798 165.447 120.966 166.468 119.225 165.917C119.839 165.348 120.398 164.878 120.885 164.345C121.454 163.73 122.058 163.116 122.437 162.384C122.645 161.977 122.627 161.164 122.356 160.866C122.085 160.567 121.354 160.594 120.84 160.658C120.371 160.712 119.938 161.01 119.487 161.2V161.191Z" fill="#262626"/>
<path d="M97.5696 160.866C98.0659 159.971 98.9141 159.573 99.9247 159.501C100.8 159.438 101.756 159.402 102.253 160.332C102.776 161.326 102.316 162.194 101.657 162.944C101.062 163.622 100.439 164.272 99.8344 164.941H103.236C102.993 165.583 102.758 166.206 102.487 166.92C101.098 165.42 99.275 166.441 97.5155 165.89C97.9937 165.438 98.4359 165.077 98.8058 164.661C99.4916 163.893 100.204 163.134 100.746 162.275C100.962 161.932 100.935 161.11 100.674 160.875C100.349 160.576 99.672 160.558 99.1667 160.622C98.6975 160.676 98.2554 160.992 97.7952 161.182C97.723 161.073 97.6509 160.965 97.5696 160.856V160.866Z" fill="#262626"/>
<path d="M63.309 164.498C64.2113 164.797 64.9963 165.131 65.8084 165.285C66.0881 165.339 66.6295 165.013 66.7107 164.76C66.7829 164.525 66.4852 164.028 66.2145 163.839C65.6641 163.45 64.9061 163.315 64.4459 162.854C63.9948 162.402 63.5436 161.652 63.6068 161.091C63.6609 160.594 64.3467 159.962 64.8971 159.763C66.6025 159.139 67.6582 159.763 67.7484 161.498C67.4145 161.263 67.207 161.073 66.9724 160.947C66.5664 160.73 66.1423 160.405 65.7092 160.378C65.3663 160.359 64.9963 160.703 64.6354 160.893C64.843 161.2 64.9783 161.607 65.258 161.796C65.7904 162.149 66.4039 162.348 66.9724 162.637C67.7303 163.025 68.2446 163.721 67.9288 164.48C67.6762 165.086 67.0265 165.646 66.413 165.926C65.8806 166.17 65.1588 166.007 64.5181 165.989C63.4624 165.953 62.9662 165.483 63.3 164.489L63.309 164.498Z" fill="#262626"/>
<path d="M77.6377 165.312C76.5368 166.179 75.4811 166.324 74.642 165.827C74.1547 165.538 73.9743 164.589 73.8119 163.902C73.6765 163.333 73.857 162.7 73.7668 162.104C73.6855 161.543 73.4329 161.01 73.1983 160.296C73.5953 159.88 74.1999 159.257 74.9217 158.507C75.0571 159.067 75.1563 159.465 75.2736 159.944C75.8962 159.989 76.5188 160.034 77.1414 160.079C77.1775 160.179 77.2136 160.269 77.2406 160.368C76.9158 160.486 76.5729 160.739 76.2571 160.703C75.1924 160.594 74.9307 161.091 75.03 162.031C75.0841 162.583 75.03 163.152 75.039 163.712C75.0571 165.221 75.2014 165.357 76.7173 165.312C76.9158 165.312 77.1143 165.312 77.6286 165.312H77.6377Z" fill="#262626"/>
<path d="M83.8636 163.965C84.0801 164.318 84.5583 164.76 84.4681 164.995C84.2967 165.465 83.8185 165.818 83.4666 166.215C83.1688 165.908 82.5913 165.574 82.6274 165.312C82.6906 164.833 83.1056 164.399 83.3763 163.947C83.5387 163.947 83.7012 163.965 83.8636 163.965Z" fill="#262626"/>
</svg>
